<?xml version="1.0" encoding="iso-8859-1"?>
<!-- Generator: Adobe Illustrator 15.1.0, SVG Export Plug-In . SVG Version: 6.00 Build 0)  -->
<!DOCTYPE svg PUBLIC "-//W3C//DTD SVG 1.1//EN" "http://www.w3.org/Graphics/SVG/1.1/DTD/svg11.dtd">
<svg version="1.1" id="icon-menu" xmlns="http://www.w3.org/2000/svg" xmlns:xlink="http://www.w3.org/1999/xlink" x="0px" y="0px"
	 width="18px" height="15px" viewBox="0 0 18 15" style="enable-background:new 0 0 18 15;" xml:space="preserve">
<rect y="6" style="display:none;fill:#03070D;" width="15" height="3"/>
<rect y="11.999" style="display:none;fill:#03070D;" width="15" height="3"/>
<rect style="display:none;fill:#03070D;" width="15" height="3"/>
<path style="fill:#03070D;" d="M18,1.5C18,2.328,17.329,3,16.5,3h-15C0.671,3,0,2.328,0,1.5l0,0C0,0.671,0.671,0,1.5,0h15
	C17.329,0,18,0.671,18,1.5L18,1.5z"/>
<path style="fill:#03070D;" d="M18,7.499c0,0.829-0.671,1.5-1.5,1.5h-15c-0.829,0-1.5-0.671-1.5-1.5l0,0C0,6.671,0.671,6,1.5,6h15
	C17.329,6,18,6.671,18,7.499L18,7.499z"/>
<path style="fill:#03070D;" d="M18,13.5c0,0.828-0.671,1.5-1.5,1.5h-15C0.671,15,0,14.328,0,13.5l0,0C0,12.671,0.671,12,1.5,12h15
	C17.329,12,18,12.671,18,13.5L18,13.5z"/>
</svg>
