<?xml version="1.0" encoding="utf-8"?>
<!-- Generator: Adobe Illustrator 15.1.0, SVG Export Plug-In . SVG Version: 6.00 Build 0)  -->
<!DOCTYPE svg PUBLIC "-//W3C//DTD SVG 1.1 Tiny//EN" "http://www.w3.org/Graphics/SVG/1.1/DTD/svg11-tiny.dtd">
<svg version="1.1" baseProfile="tiny" xmlns="http://www.w3.org/2000/svg" xmlns:xlink="http://www.w3.org/1999/xlink" x="0px"
	 y="0px" width="144px" height="48px" viewBox="0 0 144 48" overflow="inherit" xml:space="preserve">
<g id="bg">
	<rect width="144" height="48"/>
</g>
<g id="logo">
	<g id="Outline">
		<path fill="#FFFFFF" d="M31.577,42.339l-0.755-5.098H19.964l-2.785,5.098H5L25.534,8.918h11.518l5.854,33.421H31.577z
			 M28.933,20.294l-4.768,8.591h5.759L28.933,20.294z"/>
		<path fill="#FFFFFF" d="M43.708,42.339l6.278-35.687h10.81l-6.278,35.687H43.708z"/>
		<path fill="#FFFFFF" d="M72.172,25.109l-1.274,6.986c-0.032,0.188-0.055,0.409-0.07,0.66c-0.017,0.253-0.024,0.457-0.024,0.614
			c0,0.726,0.181,1.203,0.543,1.439c0.361,0.236,0.874,0.354,1.534,0.354c0.377,0,0.755-0.031,1.133-0.096
			c0.378-0.061,0.692-0.124,0.944-0.188l-1.274,7.271c-0.409,0.251-1.133,0.455-2.171,0.612C70.474,42.921,69.466,43,68.491,43
			c-1.039,0-2.062-0.094-3.068-0.283c-1.007-0.189-1.904-0.52-2.69-0.991c-0.787-0.472-1.424-1.117-1.912-1.936
			s-0.731-1.872-0.731-3.163c0-0.346,0.023-0.738,0.07-1.18c0.047-0.439,0.102-0.85,0.166-1.227l1.652-9.111h-3.682l1.322-7.6h3.493
			l0.991-5.618h10.243l-0.991,5.618h4.768l-1.322,7.6H72.172z"/>
		<path fill="#FFFFFF" d="M99.646,38.515c-0.126,0.693-0.213,1.401-0.261,2.125c-0.046,0.724-0.069,1.29-0.069,1.699h-9.064
			c0-0.22,0.007-0.574,0.023-1.062c0.016-0.488,0.039-0.89,0.071-1.205h-0.094c-0.913,1.04-1.952,1.788-3.116,2.244
			C85.972,42.771,84.682,43,83.266,43c-0.882,0-1.763-0.126-2.644-0.377c-0.882-0.253-1.676-0.638-2.384-1.158
			c-0.708-0.519-1.283-1.194-1.723-2.029c-0.441-0.832-0.661-1.833-0.661-2.997c0-1.919,0.432-3.501,1.298-4.744
			c0.865-1.243,2.03-2.226,3.493-2.951c1.463-0.723,3.154-1.234,5.075-1.534c1.919-0.299,3.934-0.448,6.042-0.448
			c0.031-0.125,0.047-0.228,0.047-0.307c0-0.078,0-0.149,0-0.212c0-0.629-0.276-1.109-0.826-1.44
			c-0.551-0.33-1.267-0.496-2.147-0.496c-1.008,0-1.983,0.197-2.927,0.59c-0.944,0.394-1.811,0.92-2.597,1.582l-4.626-5.287
			c0.755-0.724,1.612-1.361,2.573-1.912c0.959-0.55,1.943-1.015,2.95-1.392c1.007-0.378,2.03-0.661,3.069-0.85
			c1.038-0.188,2.03-0.283,2.974-0.283c3.776,0,6.615,0.763,8.521,2.29c1.904,1.526,2.856,3.674,2.856,6.443
			c0,1.165-0.127,2.471-0.379,3.918L99.646,38.515z M91.479,32.143h-0.614c-0.787,0-1.527,0.047-2.219,0.141
			c-0.692,0.096-1.298,0.246-1.817,0.45c-0.52,0.204-0.937,0.472-1.251,0.802c-0.315,0.33-0.472,0.748-0.472,1.252
			c0,0.724,0.228,1.188,0.685,1.393c0.456,0.204,0.951,0.306,1.487,0.306c1.038,0,1.927-0.33,2.667-0.991
			c0.739-0.66,1.203-1.51,1.393-2.549L91.479,32.143z"/>
		<path fill="#FFFFFF" d="M101.864,42.339l4.391-24.83h10.573l-4.391,24.83H101.864z M112.155,15.668
			c-0.818,0-1.55-0.125-2.195-0.377c-0.646-0.251-1.188-0.59-1.629-1.015c-0.44-0.424-0.786-0.912-1.037-1.463
			c-0.254-0.55-0.379-1.125-0.379-1.723c0-0.85,0.143-1.644,0.425-2.384c0.284-0.739,0.691-1.384,1.228-1.935
			c0.536-0.55,1.164-0.983,1.888-1.298C111.18,5.158,111.998,5,112.91,5c0.755,0,1.456,0.126,2.102,0.377
			c0.644,0.252,1.194,0.59,1.651,1.015c0.455,0.424,0.811,0.913,1.062,1.463c0.252,0.551,0.378,1.125,0.378,1.723
			c0,0.85-0.142,1.645-0.426,2.384c-0.282,0.74-0.684,1.385-1.202,1.936c-0.521,0.551-1.151,0.984-1.889,1.298
			C113.846,15.511,113.035,15.668,112.155,15.668z"/>
		<path fill="#FFFFFF" d="M120.062,20.059c0.142-0.945,0.244-1.794,0.307-2.549h10.147c0,0.158-0.015,0.362-0.046,0.614
			c-0.032,0.252-0.07,0.527-0.119,0.826c-0.046,0.3-0.094,0.59-0.14,0.874c-0.048,0.283-0.089,0.519-0.119,0.708h0.142
			c0.725-1.007,1.606-1.849,2.644-2.526c1.039-0.676,2.267-1.015,3.682-1.015c0.852,0,1.512,0.079,1.982,0.236l-1.982,8.969
			c-0.314-0.094-0.676-0.157-1.085-0.188c-0.409-0.031-0.787-0.047-1.133-0.047c-1.637,0-2.912,0.433-3.825,1.298
			c-0.912,0.866-1.479,1.881-1.697,3.044l-2.125,12.037H116.12l3.54-19.968C119.784,21.774,119.919,21.002,120.062,20.059z"/>
	</g>
	<g display="none">
		<path display="inline" fill="#FFFFFF" d="M28.04,41.5l-0.768-5.184h-11.04L13.4,41.5H1.016l20.88-33.984h11.712L39.56,41.5H28.04z
			 M25.352,19.084l-4.848,8.736h5.856L25.352,19.084z"/>
		<path display="inline" fill="#FFFFFF" d="M40.375,41.5L46.76,5.212h10.992L51.368,41.5H40.375z"/>
		<path display="inline" fill="#FFFFFF" d="M69.319,23.98l-1.296,7.104c-0.032,0.191-0.056,0.416-0.072,0.672
			c-0.017,0.257-0.024,0.465-0.024,0.624c0,0.737,0.184,1.224,0.552,1.464c0.368,0.24,0.888,0.36,1.56,0.36
			c0.384,0,0.768-0.032,1.152-0.097c0.384-0.062,0.704-0.127,0.96-0.191l-1.296,7.393c-0.416,0.256-1.152,0.463-2.208,0.623
			c-1.056,0.16-2.081,0.24-3.072,0.24c-1.056,0-2.096-0.096-3.12-0.288c-1.024-0.192-1.937-0.528-2.736-1.008
			c-0.8-0.479-1.448-1.136-1.944-1.968s-0.744-1.904-0.744-3.217c0-0.352,0.024-0.751,0.072-1.199
			c0.048-0.447,0.104-0.864,0.168-1.248l1.68-9.264h-3.744l1.344-7.728h3.552l1.008-5.712h10.416l-1.008,5.712h4.848l-1.344,7.728
			H69.319z"/>
		<path display="inline" fill="#FFFFFF" d="M97.256,37.611c-0.129,0.705-0.217,1.425-0.266,2.16c-0.047,0.736-0.07,1.312-0.07,1.729
			h-9.217c0-0.224,0.007-0.584,0.024-1.08c0.016-0.496,0.04-0.904,0.072-1.225h-0.096c-0.929,1.057-1.985,1.817-3.168,2.281
			c-1.185,0.463-2.496,0.695-3.936,0.695c-0.896,0-1.792-0.128-2.688-0.384c-0.896-0.257-1.704-0.647-2.424-1.177
			c-0.72-0.527-1.304-1.215-1.752-2.063c-0.448-0.847-0.672-1.864-0.672-3.048c0-1.951,0.439-3.56,1.32-4.824
			c0.88-1.264,2.064-2.263,3.552-3c1.488-0.735,3.208-1.255,5.16-1.56c1.951-0.304,4-0.456,6.144-0.456
			c0.032-0.127,0.048-0.232,0.048-0.312c0-0.08,0-0.152,0-0.216c0-0.64-0.281-1.128-0.84-1.464c-0.56-0.336-1.288-0.504-2.184-0.504
			c-1.025,0-2.016,0.2-2.976,0.6c-0.96,0.4-1.841,0.936-2.64,1.608l-4.704-5.376c0.768-0.736,1.64-1.384,2.616-1.944
			c0.976-0.559,1.976-1.032,3-1.416c1.023-0.384,2.064-0.672,3.12-0.864c1.056-0.192,2.064-0.288,3.024-0.288
			c3.84,0,6.727,0.776,8.664,2.328c1.936,1.552,2.904,3.736,2.904,6.552c0,1.185-0.129,2.513-0.385,3.984L97.256,37.611z
			 M88.951,31.132h-0.624c-0.8,0-1.553,0.048-2.256,0.144c-0.704,0.097-1.32,0.249-1.848,0.457
			c-0.528,0.208-0.953,0.479-1.272,0.815c-0.32,0.336-0.48,0.761-0.48,1.272c0,0.736,0.231,1.208,0.696,1.416
			c0.463,0.208,0.967,0.312,1.512,0.312c1.056,0,1.959-0.336,2.712-1.008c0.751-0.672,1.224-1.536,1.416-2.592L88.951,31.132z"/>
		<path display="inline" fill="#FFFFFF" d="M99.511,41.5l4.464-25.248h10.752L110.263,41.5H99.511z M109.975,14.38
			c-0.832,0-1.576-0.127-2.231-0.384c-0.656-0.256-1.208-0.6-1.656-1.032c-0.448-0.432-0.8-0.928-1.056-1.488
			c-0.257-0.56-0.384-1.144-0.384-1.752c0-0.864,0.144-1.672,0.432-2.424c0.288-0.751,0.703-1.408,1.248-1.968
			c0.544-0.56,1.184-1,1.92-1.32c0.735-0.32,1.567-0.48,2.496-0.48c0.768,0,1.479,0.128,2.136,0.384
			c0.655,0.256,1.216,0.6,1.68,1.032c0.464,0.432,0.824,0.928,1.08,1.488c0.256,0.56,0.385,1.145,0.385,1.752
			c0,0.864-0.145,1.672-0.433,2.424c-0.288,0.752-0.696,1.409-1.224,1.968c-0.528,0.56-1.169,1-1.92,1.32
			C111.694,14.22,110.87,14.38,109.975,14.38z"/>
		<path display="inline" fill="#FFFFFF" d="M118.014,18.844c0.145-0.96,0.248-1.824,0.312-2.592h10.319
			c0,0.161-0.016,0.368-0.048,0.624c-0.032,0.256-0.071,0.536-0.12,0.84c-0.048,0.305-0.096,0.6-0.144,0.888s-0.089,0.528-0.12,0.72
			h0.145c0.735-1.024,1.632-1.88,2.688-2.568c1.056-0.688,2.304-1.032,3.744-1.032c0.864,0,1.536,0.08,2.016,0.24l-2.016,9.12
			c-0.32-0.096-0.688-0.16-1.104-0.192c-0.416-0.032-0.8-0.048-1.151-0.048c-1.664,0-2.961,0.44-3.889,1.32
			c-0.928,0.88-1.504,1.913-1.728,3.096l-2.16,12.24h-10.752l3.6-20.304C117.733,20.588,117.87,19.804,118.014,18.844z"/>
	</g>
</g>
</svg>
