<svg baseProfile="tiny" xmlns="http://www.w3.org/2000/svg" width="144" height="48" viewBox="0 0 144 48" overflow="inherit"><path d="M0 0h144v48H0z"/><g fill="#fff"><path d="M31.577 42.34l-.755-5.1H19.964l-2.785 5.1H5L25.534 8.917h11.518l5.854 33.42h-11.33zm-2.644-22.046l-4.768 8.59h5.76l-.992-8.59zM43.708 42.34L49.986 6.65h10.81L54.518 42.34h-10.81zM72.172 25.11l-1.274 6.985c-.032.188-.055.41-.07.66-.017.253-.024.457-.024.614 0 .725.18 1.202.543 1.438.36.236.874.354 1.534.354.378 0 .756-.03 1.134-.096.378-.06.692-.124.944-.188l-1.274 7.27c-.41.252-1.133.456-2.17.613-1.04.16-2.048.24-3.023.24-1.038 0-2.06-.094-3.067-.283-1.007-.19-1.904-.52-2.69-.99-.787-.473-1.424-1.118-1.912-1.937s-.73-1.872-.73-3.163c0-.346.023-.738.07-1.18.047-.44.102-.85.166-1.227l1.652-9.11h-3.682l1.322-7.6h3.493l.992-5.62h10.243l-.99 5.62h4.767l-1.322 7.6h-4.628zM99.646 38.515c-.126.693-.213 1.4-.26 2.125-.047.724-.07 1.29-.07 1.7h-9.064c0-.22.007-.575.023-1.063s.04-.89.07-1.205h-.093c-.913 1.04-1.952 1.788-3.116 2.244-1.164.455-2.454.684-3.87.684-.882 0-1.763-.126-2.644-.377-.882-.253-1.676-.638-2.384-1.158-.708-.52-1.283-1.194-1.723-2.03-.44-.83-.66-1.832-.66-2.996 0-1.92.43-3.502 1.297-4.745.865-1.243 2.03-2.226 3.493-2.95 1.463-.724 3.154-1.235 5.075-1.535 1.92-.3 3.934-.448 6.042-.448.03-.125.047-.228.047-.307v-.212c0-.63-.277-1.11-.827-1.44-.55-.33-1.267-.496-2.147-.496-1.008 0-1.983.197-2.927.59-.945.394-1.812.92-2.598 1.582l-4.626-5.288c.755-.724 1.612-1.36 2.573-1.912.958-.55 1.942-1.015 2.95-1.392 1.006-.378 2.03-.66 3.068-.85 1.038-.188 2.03-.283 2.974-.283 3.776 0 6.615.763 8.52 2.29 1.905 1.526 2.857 3.674 2.857 6.443 0 1.165-.128 2.47-.38 3.918l-1.604 9.11zm-8.167-6.372h-.615c-.787 0-1.527.047-2.22.14-.69.097-1.297.247-1.816.45-.52.205-.938.473-1.252.803-.315.33-.472.748-.472 1.252 0 .724.228 1.188.685 1.393.457.205.952.307 1.488.307 1.038 0 1.927-.33 2.667-.99.74-.66 1.203-1.51 1.393-2.55l.14-.804zM101.864 42.34l4.39-24.83h10.574l-4.39 24.83h-10.574zm10.29-26.672c-.817 0-1.55-.125-2.194-.377-.646-.25-1.188-.59-1.63-1.014-.44-.424-.785-.912-1.036-1.463-.254-.55-.38-1.125-.38-1.723 0-.85.144-1.644.426-2.384.284-.74.69-1.384 1.228-1.935.536-.55 1.164-.982 1.888-1.297.724-.315 1.542-.473 2.454-.473.755 0 1.456.126 2.102.377.644.252 1.194.59 1.65 1.015.456.424.812.913 1.063 1.463.252.55.378 1.125.378 1.723 0 .85-.142 1.645-.426 2.384-.282.74-.684 1.385-1.202 1.936-.52.55-1.15.984-1.89 1.298-.74.315-1.55.472-2.43.472zM120.062 20.06c.142-.946.244-1.795.307-2.55h10.146c0 .158-.015.362-.046.614-.032.252-.07.527-.12.826-.045.3-.093.59-.14.874-.047.283-.088.52-.118.708h.142c.725-1.007 1.606-1.85 2.644-2.526 1.04-.676 2.267-1.015 3.682-1.015.852 0 1.512.08 1.982.237l-1.982 8.97c-.314-.095-.676-.158-1.085-.19-.41-.03-.787-.046-1.133-.046-1.637 0-2.912.434-3.825 1.3-.912.865-1.48 1.88-1.697 3.043l-2.125 12.037H116.12l3.54-19.968c.124-.598.26-1.37.402-2.313z"/></g></svg>